/* XPM */
static char * Airspace_Infringement_xpm[] = {
"32 32 256 2",
"  	c None",
". 	c #A47FB9",
"+ 	c #FFFFFF",
"@ 	c #F9F6F9",
"# 	c #FFFEFF",
"$ 	c #FDFCFD",
"% 	c #F6F1F7",
"& 	c #ECE3EF",
"* 	c #FAF7FB",
"= 	c #F9F6FA",
"- 	c #F8F5F9",
"; 	c #EEE6F1",
"> 	c #F6F1F8",
", 	c #F5F0F7",
"' 	c #F4EFF6",
") 	c #F3EEF5",
"! 	c #E4D8E9",
"~ 	c #E6DBEB",
"{ 	c #ECE3F0",
"] 	c #EBE2EF",
"^ 	c #B89AC7",
"/ 	c #D4C1DD",
"( 	c #DECFE5",
"_ 	c #DCCDE3",
": 	c #DED0E5",
"< 	c #E1D4E7",
"[ 	c #E2D5E8",
"} 	c #E8DEED",
"| 	c #E7DDEC",
"1 	c #E6DCEB",
"2 	c #F3EDF6",
"3 	c #F2ECF5",
"4 	c #F1EBF4",
"5 	c #F0EAF3",
"6 	c #FBF9FC",
"7 	c #FAF8FB",
"8 	c #9C73B3",
"9 	c #9E75B4",
"0 	c #9E76B4",
"a 	c #9D75B3",
"b 	c #A079B5",
"c 	c #A27BB7",
"d 	c #A37DB8",
"e 	c #A27CB7",
"f 	c #A47EB9",
"g 	c #A681BA",
"h 	c #A580B9",
"i 	c #A883BC",
"j 	c #A682BA",
"k 	c #A883BB",
"l 	c #A783BB",
"m 	c #A884BB",
"n 	c #AA87BD",
"o 	c #AC89BF",
"p 	c #AB88BE",
"q 	c #AC8ABF",
"r 	c #AA88BD",
"s 	c #AD8BC0",
"t 	c #AD8BBF",
"u 	c #B08FC2",
"v 	c #AF8EC1",
"w 	c #B291C4",
"x 	c #B291C3",
"y 	c #B292C3",
"z 	c #B090C1",
"A 	c #B495C5",
"B 	c #B698C6",
"C 	c #BA9DCA",
"D 	c #B99CC9",
"E 	c #B89BC8",
"F 	c #B79AC7",
"G 	c #BA9DC9",
"H 	c #BC9FCB",
"I 	c #BA9EC9",
"J 	c #BEA3CD",
"K 	c #BDA2CC",
"L 	c #BCA1CB",
"M 	c #C0A6CE",
"N 	c #C2A9D0",
"O 	c #C1A8CF",
"P 	c #C3AAD1",
"Q 	c #C4ABD1",
"R 	c #C5ADD2",
"S 	c #C4ACD1",
"T 	c #C9B2D5",
"U 	c #C8B1D4",
"V 	c #C7B0D3",
"W 	c #CAB3D6",
"X 	c #CCB7D7",
"Y 	c #CEB9D9",
"Z 	c #CFBBDA",
"` 	c #CEBAD9",
" .	c #D4C1DE",
"..	c #D3C1DD",
"+.	c #D2C0DC",
"@.	c #D4C3DD",
"#.	c #D8C7E1",
"$.	c #D6C5DF",
"%.	c #D9CAE1",
"&.	c #DCCDE4",
"*.	c #DBCCE3",
"=.	c #E0D3E7",
"-.	c #E5DAEB",
";.	c #E4D9EA",
">.	c #E3D8E9",
",.	c #E9E0EE",
"'.	c #EAE1EF",
").	c #9B72B3",
"!.	c #9D75B4",
"~.	c #9E77B5",
"{.	c #9F78B5",
"].	c #A17AB7",
"^.	c #9F79B6",
"/.	c #A079B6",
"(.	c #A27BB8",
"_.	c #A27CB8",
":.	c #A17CB7",
"<.	c #A47FBA",
"[.	c #A37EB9",
"}.	c #A581BA",
"|.	c #A783BC",
"1.	c #A784BC",
"2.	c #A987BE",
"3.	c #AA87BE",
"4.	c #A986BD",
"5.	c #A885BC",
"6.	c #AB8ABF",
"7.	c #AD8CC0",
"8.	c #AE8DC1",
"9.	c #AF8FC2",
"0.	c #B191C4",
"a.	c #B192C4",
"b.	c #B091C3",
"c.	c #AF90C2",
"d.	c #B293C4",
"e.	c #B192C3",
"f.	c #B495C6",
"g.	c #B394C5",
"h.	c #B496C5",
"i.	c #B597C6",
"j.	c #B699C7",
"k.	c #B598C6",
"l.	c #B79AC8",
"m.	c #B99DCA",
"n.	c #BBA0CB",
"o.	c #BA9FCA",
"p.	c #BCA1CC",
"q.	c #BDA3CD",
"r.	c #BEA4CD",
"s.	c #BFA5CE",
"t.	c #C1A8D0",
"u.	c #BFA6CE",
"v.	c #C3ACD1",
"w.	c #C6AFD4",
"x.	c #C5AED3",
"y.	c #C7B0D4",
"z.	c #C6AFD3",
"A.	c #C9B3D6",
"B.	c #C9B4D6",
"C.	c #CCB7D8",
"D.	c #CBB6D7",
"E.	c #CAB5D6",
"F.	c #C9B4D5",
"G.	c #CEB9DA",
"H.	c #CDB9D9",
"I.	c #D0BDDB",
"J.	c #CFBCDA",
"K.	c #D3C1DE",
"L.	c #D1BFDC",
"M.	c #D4C3DE",
"N.	c #D3C2DD",
"O.	c #D5C4DF",
"P.	c #D9C9E2",
"Q.	c #D8C8E1",
"R.	c #D7C7E0",
"S.	c #DACBE3",
"T.	c #D9CAE2",
"U.	c #DCCEE4",
"V.	c #E0D3E8",
"W.	c #DFD2E7",
"X.	c #DED1E6",
"Y.	c #DDD0E5",
"Z.	c #E3D7EA",
"`.	c #E2D6E9",
" +	c #E1D5E8",
".+	c #F0E9F4",
"++	c #EFE8F3",
"@+	c #EEE7F2",
"#+	c #EDE6F1",
"$+	c #F3EEF6",
"%+	c #A582BB",
"&+	c #BBA0CC",
"*+	c #CDBAD9",
"=+	c #D3C2DE",
"-+	c #D7C8E1",
";+	c #DBCDE4",
">+	c #E3D8EA",
",+	c #E1D6E8",
"'+	c #E8DFEE",
")+	c #E7DEED",
"!+	c #EBE3F0",
"~+	c #F8F5FA",
"{+	c #F7F4F9",
"]+	c #F6F3F8",
"^+	c #F5F2F7",
"/+	c #D5C5E0",
"(+	c #DDD0E6",
"_+	c #E5DBEC",
":+	c #EDE6F2",
"<+	c #ECE5F1",
"[+	c #EBE4F0",
"}+	c #F5F1F8",
"|+	c #E5DCEC",
"1+	c #F1ECF5",
"2+	c #F5F2F8",
"3+	c #FAF8FC",
"4+	c #FCFBFD",
"5+	c #FBFAFC",
"6+	c #F7F5FA",
"7+	c #F9F8FB",
"8+	c #FDFDFE",
"9+	c #FEFEFE",
"0+	c #FAFAFA",
"a+	c #F8F8F8",
"b+	c #F7F7F7",
"c+	c #F5F5F5",
"d+	c #F1F1F1",
"e+	c #EBEBEB",
"f+	c #E6E6E6",
"g+	c #E5E5E5",
"h+	c #E2E2E2",
"i+	c #DCDCDC",
"j+	c #D7D7D7",
"k+	c #D3D3D3",
"l+	c #CDCDCD",
"m+	c #C4C4C4",
"n+	c #B7B7B7",
"o+	c #A8A8A8",
"p+	c #9B9B9B",
"q+	c #8C8C8C",
"r+	c #858585",
"s+	c #828282",
"t+	c #808080",
"u+	c #767676",
"v+	c #6A6A6A",
"w+	c #5D5D5D",
"x+	c #565656",
"y+	c #545454",
"z+	c #515151",
"A+	c #444444",
"B+	c #363636",
"C+	c #252525",
"D+	c #1A1A1A",
"E+	c #141414",
"F+	c #0A0A0A",
"G+	c #040404",
"                                                                ",
"      + + + + + + + + + + + + + + + + + + + + + + + + + +       ",
"    . . . . . . . . . . . . . . . . . . . + . + . . . . . .     ",
"  + . . . . . . . . . . . . . . . . . + . . . . 5+. . . . . +   ",
"  + . . . . . + . + . . . . . . . + . . . . . . . + . . . . +   ",
"  + . . . . ].+ . . . + + . { . + . . . . . . . . . ].. . . +   ",
"  + . . . . . . . . . . . . . d.. . . . . . . . . . . + . . +   ",
"  + . . . + . . . . . . . . . . . . . . . . . . . . . . . . +   ",
"  + . . . . . . . . . . . . . . . . . . . . . . . . . . @++++   ",
"  + . + . . . . . . . . . . . . . . . . . . . . . . . . . + +   ",
"  + . . . . . . . . . . . . . . . . . . . . . . . . . . . . +   ",
"  + A . . . . . . . . . . . . . . . . . . . . . . . . . . + +   ",
"  + . . . . . . . . . . . . . . . . . . . . . . . . . . . . +   ",
"  + + . . . . . . . . . . . . . . . . . . . . . . . . . + . +   ",
"  + . . . . . . . . . . . . . . . . . . . . . . . . . {.. . +   ",
"  + . . + . . . . . . . . . . . . 4.. . . . . . . . . + . . +   ",
"  + . . . . . . . . . . . . . . /.+ + . . . . . . . . . . . +   ",
"  + . . . . + . . . . . . . . . . + + b.. . . . . + . . . . +   ",
"  + . . . . . . . . . . . . . . . . + + . . . . . + . < + . +   ",
"  + . . . + . . . . . . . . . . . . . + + + + + + + + + + + +   ",
"  + . . + . . . . . . . . . . . . . . . + + + + + + + + . . +   ",
"  + . + . . . . . . . . . . . . . . . S.+ + + + + . . . . . +   ",
"  + . + . . . . . . . . . . . . . . . + + + + + . . . . . . +   ",
"  + + . . . . . . . . . . . . . . . . + + + + + e . . . . . +   ",
"  + . . . . . . . . . . . . . . . l + + + . . + + . . . . . +   ",
"  + + . . . . . . . . . . . . d + . + + + . . . + + + + . . +   ",
"  + /.+ . . . . . . . . . . + . . . + + . . . . + + + + . . +   ",
"  + . . + . . . . . . . . + . . . + + M.. . . . + + . . . . +   ",
"  + . . . + . . . . [.+ . . . . . /.+ . . . . . + . . . . . +   ",
"    . . . . + . . + . . . . . . . . . . . . . . . . . . . .     ",
"      + + + + + + + + + + + + + + + + + + + + + + + + + +       ",
"                                                                "};
